<svg id="Group_31" data-name="Group 31" xmlns="http://www.w3.org/2000/svg" width="38.18" height="38.18" viewBox="0 0 38.18 38.18">
  <path id="Path_17" data-name="Path 17" d="M247.661,78.672A19.09,19.09,0,1,0,225.588,97.53V84.191h-4.846V78.672h4.846V74.467c0-4.784,2.85-7.428,7.211-7.428a29.308,29.308,0,0,1,4.273.373v4.7h-2.408a2.76,2.76,0,0,0-3.111,2.982v3.58h5.294L236,84.191h-4.448V97.53A19.1,19.1,0,0,0,247.661,78.672Z" transform="translate(-209.481 -59.583)" fill="#8b2e5d"/>
  <path id="Path_18" data-name="Path 18" d="M233.366,82.446l.846-5.519h-5.294v-3.58a2.76,2.76,0,0,1,3.111-2.982h2.408v-4.7a29.308,29.308,0,0,0-4.273-.373c-4.361,0-7.211,2.644-7.211,7.428v4.205h-4.846v5.519h4.846V95.785a19.258,19.258,0,0,0,5.965,0V82.446Z" transform="translate(-206.845 -57.838)" fill="#fff"/>
</svg>
