<svg xmlns="http://www.w3.org/2000/svg" width="24.384" height="24.385" viewBox="0 0 24.384 24.385">
  <path id="Icon_awesome-arrow-alt-circle-right" data-name="Icon awesome-arrow-alt-circle-right" d="M12.755.563A12.192,12.192,0,1,1,.563,12.755,12.19,12.19,0,0,1,12.755.563Zm-5.7,14.355h5.7V18.4a.59.59,0,0,0,1.008.418l5.619-5.649a.585.585,0,0,0,0-.831L13.763,6.688a.59.59,0,0,0-1.008.418v3.486h-5.7a.592.592,0,0,0-.59.59v3.146A.592.592,0,0,0,7.052,14.918Z" transform="translate(-0.563 -0.563)" fill="currentColor"/>
</svg>
