<svg id="Group_30" data-name="Group 30" xmlns="http://www.w3.org/2000/svg" width="38.179" height="38.18" viewBox="0 0 38.179 38.18">
  <ellipse id="Ellipse_2" data-name="Ellipse 2" cx="19.09" cy="19.09" rx="19.09" ry="19.09" transform="translate(0)" fill="#8b2e5d"/>
  <path id="Path_14" data-name="Path 14" d="M271.418,68.693a1.312,1.312,0,1,0,1.312,1.312A1.312,1.312,0,0,0,271.418,68.693Z" transform="translate(-246.402 -56.825)" fill="#fff"/>
  <path id="Path_15" data-name="Path 15" d="M267.932,69.982a5.512,5.512,0,1,0,5.512,5.512A5.519,5.519,0,0,0,267.932,69.982Zm0,9.043a3.531,3.531,0,1,1,3.532-3.53A3.534,3.534,0,0,1,267.932,79.025Z" transform="translate(-248.751 -56.431)" fill="#fff"/>
  <path id="Path_16" data-name="Path 16" d="M273.659,88.014h-8.936A6.73,6.73,0,0,1,258,81.291V72.355a6.731,6.731,0,0,1,6.724-6.723h8.936a6.731,6.731,0,0,1,6.724,6.723v8.937A6.73,6.73,0,0,1,273.659,88.014Zm-8.936-20.276a4.622,4.622,0,0,0-4.618,4.617v8.937a4.623,4.623,0,0,0,4.618,4.618h8.936a4.624,4.624,0,0,0,4.618-4.618V72.355a4.623,4.623,0,0,0-4.618-4.617Z" transform="translate(-250.102 -57.76)" fill="#fff"/>
</svg>
