<svg id="Group_28" data-name="Group 28" xmlns="http://www.w3.org/2000/svg" width="38.179" height="38.18" viewBox="0 0 38.179 38.18">
  <ellipse id="Ellipse_4" data-name="Ellipse 4" cx="19.09" cy="19.09" rx="19.09" ry="19.09" transform="translate(0)" fill="#8b2e5d"/>
  <path id="Path_19" data-name="Path 19" d="M218.04,157.871h3.7v11.877h-3.7Zm1.849-5.9a2.141,2.141,0,1,1-2.143,2.139,2.14,2.14,0,0,1,2.143-2.139" transform="translate(-206.956 -142.337)" fill="#fff"/>
  <path id="Path_20" data-name="Path 20" d="M222.577,156.559h3.541v1.625h.048a3.884,3.884,0,0,1,3.5-1.919c3.738,0,4.427,2.458,4.427,5.657v6.514H230.4v-5.773c0-1.379-.027-3.15-1.919-3.15-1.921,0-2.214,1.5-2.214,3.049v5.875h-3.69Z" transform="translate(-205.479 -141.025)" fill="#fff"/>
</svg>
