<svg xmlns="http://www.w3.org/2000/svg" width="16.743" height="26.789" viewBox="0 0 16.743 26.789">
  <path id="Icon_metro-location" data-name="Icon metro-location" d="M16.726,1.928A8.372,8.372,0,0,0,8.355,10.3c0,8.372,8.372,18.418,8.372,18.418S25.1,18.671,25.1,10.3a8.372,8.372,0,0,0-8.372-8.372Zm0,13.5A5.128,5.128,0,1,1,21.854,10.3,5.128,5.128,0,0,1,16.726,15.427ZM13.482,10.3a3.244,3.244,0,1,1,3.244,3.244A3.244,3.244,0,0,1,13.482,10.3Z" transform="translate(-8.355 -1.928)" fill="#561334"/>
</svg>
