<svg xmlns="http://www.w3.org/2000/svg" width="44.628" height="61.776" viewBox="0 0 44.628 61.776">
  <g id="Group_36" data-name="Group 36" transform="translate(1 1)">
    <ellipse id="Ellipse_6" data-name="Ellipse 6" cx="14.156" cy="14.156" rx="14.156" ry="14.156" transform="translate(7.158 7.158)" fill="none" stroke="#8b2e5d" stroke-width="2"/>
    <g id="Group_34" data-name="Group 34" transform="translate(0 0)">
      <path id="Path_27" data-name="Path 27" d="M686.068,521.314c0,1.826-2.05,3.358-2.5,5.042-.466,1.742.53,4.092-.352,5.617-.9,1.548-3.436,1.854-4.692,3.11s-1.563,3.8-3.11,4.692c-1.526.883-3.875-.113-5.617.353-1.684.45-3.216,2.5-5.042,2.5s-3.358-2.05-5.042-2.5c-1.742-.466-4.092.53-5.617-.353-1.547-.9-1.854-3.436-3.11-4.692s-3.8-1.563-4.692-3.11c-.883-1.525.113-3.875-.353-5.617-.45-1.684-2.5-3.216-2.5-5.042s2.05-3.358,2.5-5.042c.466-1.742-.53-4.092.353-5.617.9-1.547,3.436-1.854,4.692-3.11s1.563-3.8,3.11-4.692c1.525-.883,3.875.113,5.617-.353,1.684-.45,3.216-2.5,5.042-2.5s3.358,2.05,5.042,2.5c1.742.466,4.091-.53,5.617.353,1.547.9,1.854,3.436,3.11,4.692s3.8,1.563,4.692,3.11c.883,1.526-.113,3.875.352,5.617C684.018,517.956,686.068,519.488,686.068,521.314Z" transform="translate(-643.44 -500)" fill="none" stroke="#8b2e5d" stroke-width="2"/>
    </g>
    <g id="Group_35" data-name="Group 35" transform="translate(0.088 37.738)">
      <path id="Path_28" data-name="Path 28" d="M1013.911,1131.318l8.985,15.563-7.931-.784-3.286,7.259-9.9-17.151" transform="translate(-980.446 -1131.318)" fill="none" stroke="#8b2e5d" stroke-linecap="round" stroke-linejoin="round" stroke-width="2"/>
      <path id="Path_29" data-name="Path 29" d="M653.905,1131.318l-8.986,15.563,7.931-.784,3.286,7.259,9.9-17.151" transform="translate(-644.92 -1131.318)" fill="none" stroke="#8b2e5d" stroke-linecap="round" stroke-linejoin="round" stroke-width="2"/>
    </g>
    <path id="Path_30" data-name="Path 30" d="M871.213,774.737l4.96,4.96,10.437-10.437" transform="translate(-857.597 -753.165)" fill="none" stroke="#8b2e5d" stroke-linecap="round" stroke-linejoin="round" stroke-width="2"/>
  </g>
</svg>
