<svg id="Group_33" data-name="Group 33" xmlns="http://www.w3.org/2000/svg" width="73.54" height="55.946" viewBox="0 0 73.54 55.946">
  <path id="Path_21" data-name="Path 21" d="M743.242,1279.647a1.8,1.8,0,0,1-1.8-1.8v-20.463h56.445v2.349h0a4,4,0,0,1,1.722.393c.346.166.691.338,1.027.5v-15.015a4.6,4.6,0,0,0-4.6-4.6H743.287a4.6,4.6,0,0,0-4.6,4.6V1277.8a4.6,4.6,0,0,0,4.6,4.6h38.491q-.314-1.339-.51-2.749Zm-1.8-34.078a1.8,1.8,0,0,1,1.8-1.8h52.844a1.8,1.8,0,0,1,1.8,1.8v2.985H741.441Z" transform="translate(-738.692 -1241.019)" fill="#8b2e5d"/>
  <path id="Path_22" data-name="Path 22" d="M1025.948,2179.677a1.375,1.375,0,0,0-1.374-1.375H994.8a1.374,1.374,0,1,0,0,2.749h29.77A1.374,1.374,0,0,0,1025.948,2179.677Z" transform="translate(-986.679 -2153.466)" fill="#993680"/>
  <path id="Path_23" data-name="Path 23" d="M994.8,2443.992a1.375,1.375,0,0,0,0,2.749h13.85a1.375,1.375,0,1,0,0-2.749Z" transform="translate(-986.679 -2412.115)" fill="#993680"/>
  <path id="Path_24" data-name="Path 24" d="M2458.5,2048.838a22.83,22.83,0,0,1-11.278-2.978l0,0c-.358-.178-.729-.363-1.092-.538a1.383,1.383,0,0,0-.6-.136h-.007a1.382,1.382,0,0,0-.59.136c-.362.174-.718.352-1.1.54a22.828,22.828,0,0,1-11.277,2.978,1.377,1.377,0,0,0-1.375,1.376v7.459a27.551,27.551,0,0,0,2.143,11.142,20.424,20.424,0,0,0,4.78,6.778,18.14,18.14,0,0,0,7.077,4.184,1.409,1.409,0,0,0,.334.044h.012a1.4,1.4,0,0,0,.345-.044,18.116,18.116,0,0,0,7.076-4.184,20.416,20.416,0,0,0,4.781-6.778,27.555,27.555,0,0,0,2.143-11.142v-7.459A1.378,1.378,0,0,0,2458.5,2048.838Zm-1.375,8.835c0,6.772-2.007,12.1-5.964,15.829a16.986,16.986,0,0,1-4.11,2.862,2.068,2.068,0,0,1-2.948.045,16.971,16.971,0,0,1-4.119-2.83c-4.013-3.733-6.046-9.085-6.046-15.906v-6.117a25.853,25.853,0,0,0,11.128-3.233l.467-.231.432.215.035.017a25.841,25.841,0,0,0,11.126,3.232Z" transform="translate(-2386.341 -2023.875)" fill="#8b2e5d"/>
  <path id="Path_25" data-name="Path 25" d="M2812.244,2336.4a4.363,4.363,0,0,0-4.364,4.363v1.6h2.021v-.754c0-.258,0-.543,0-.862a2.343,2.343,0,1,1,4.685.029v1.587h2.021v-1.6a4.364,4.364,0,0,0-4.364-4.363Z" transform="translate(-2753.05 -2307.369)" fill="#8b2e5d"/>
  <path id="Path_26" data-name="Path 26" d="M2770.486,2581.126a1.44,1.44,0,0,0-1.437,1.437v5.221a2.574,2.574,0,0,0,.6,1.653,6.4,6.4,0,0,0,9.576.018,2.592,2.592,0,0,0,.612-1.671v-5.221a1.436,1.436,0,0,0-1.436-1.437Zm4.645,4.959v1.691a.69.69,0,0,1-1.38,0v-1.691a1.389,1.389,0,1,1,1.38,0Z" transform="translate(-2715.248 -2545.615)" fill="#8b2e5d"/>
</svg>
