<svg id="Group_29" data-name="Group 29" xmlns="http://www.w3.org/2000/svg" width="38.18" height="38.18" viewBox="0 0 38.18 38.18">
  <ellipse id="Ellipse_3" data-name="Ellipse 3" cx="19.09" cy="19.09" rx="19.09" ry="19.09" transform="translate(0)" fill="#8b2e5d"/>
  <path id="Path_13" data-name="Path 13" d="M321.988,69.695a8.631,8.631,0,0,1-2.106.6c.338-.056.836-.67,1.035-.918a3.874,3.874,0,0,0,.7-1.274c.018-.037.031-.082,0-.11A.121.121,0,0,0,321.5,68a10.755,10.755,0,0,1-2.5.956.167.167,0,0,1-.172-.046,1.969,1.969,0,0,0-.218-.223,4.417,4.417,0,0,0-1.209-.74,4.211,4.211,0,0,0-1.855-.3,4.425,4.425,0,0,0-1.76.5,4.529,4.529,0,0,0-1.419,1.159,4.35,4.35,0,0,0-.847,1.7,4.577,4.577,0,0,0-.044,1.793c.013.1,0,.114-.086.1a13.341,13.341,0,0,1-8.579-4.366c-.1-.115-.154-.115-.236.008a4.351,4.351,0,0,0,.742,5.14c.168.159.341.319.528.464a4.371,4.371,0,0,1-1.655-.464c-.1-.064-.15-.027-.159.086a2.649,2.649,0,0,0,.027.491,4.4,4.4,0,0,0,2.71,3.507,2.537,2.537,0,0,0,.551.168,4.9,4.9,0,0,1-1.624.05c-.119-.022-.163.037-.119.15a4.569,4.569,0,0,0,3.412,2.857c.154.027.309.027.465.064-.009.013-.02.013-.027.027a5.405,5.405,0,0,1-2.33,1.234,8.334,8.334,0,0,1-3.537.453c-.191-.027-.231-.026-.282,0s-.007.078.055.127c.24.159.486.3.736.437a11.707,11.707,0,0,0,2.364.947,12.6,12.6,0,0,0,12.23-2.859c2.506-2.491,3.384-5.925,3.384-9.362,0-.134.159-.209.253-.279a8.31,8.31,0,0,0,1.665-1.731.531.531,0,0,0,.11-.332v-.018C322.073,69.64,322.072,69.657,321.988,69.695Z" transform="translate(-292.351 -57.146)" fill="#fff"/>
</svg>
