<svg id="Layer_x0020_1" xmlns="http://www.w3.org/2000/svg" width="45.773" height="45.773" viewBox="0 0 45.773 45.773">
  <path id="Path_338" data-name="Path 338" d="M22.276,45.773a23.33,23.33,0,0,0,2.538-.094,2.68,2.68,0,0,1,.611-.047c.564-.141,1.081-.141,1.786-.282a17.585,17.585,0,0,0,2.256-.564c.188-.047.329-.094.517-.141.7-.235,1.363-.517,2.021-.8.329-.141.658-.282.94-.423a12.661,12.661,0,0,0,1.363-.752c.141-.094.282-.141.423-.235A11.9,11.9,0,0,0,36,41.591a14.824,14.824,0,0,0,1.363-1.034l.329-.235.094-.094c.658-.564,1.269-1.222,1.927-1.88l.658-.7c.188-.282.423-.517.611-.8.235-.329.517-.658.752-.987,0-.047,0-.047.047-.094l.329-.517a3.3,3.3,0,0,1,.282-.423l.752-1.363c.141-.282.329-.611.47-.893l.329-.752a9.414,9.414,0,0,0,.47-1.222,16.446,16.446,0,0,0,.658-2.162,18.158,18.158,0,0,0,.47-2.3l.047-.611c.047-.235.047-.47.094-.658a25.961,25.961,0,0,0,.094-2.679l-.047-.658c-.047-.282-.094-.987-.141-1.269l-.047-.611a21.857,21.857,0,0,0-.752-3.384,15.971,15.971,0,0,0-.564-1.6c-.188-.47-.376-.987-.611-1.457l-.7-1.363a4.367,4.367,0,0,1-.235-.47c-.188-.282-.329-.564-.517-.846-.094-.047-.094-.141-.141-.188-.235-.376-.47-.7-.7-1.034l-.94-1.175a2.354,2.354,0,0,0-.329-.376c-.094-.094-.188-.235-.329-.376a2.171,2.171,0,0,0-.329-.329,24,24,0,0,0-1.974-1.833c-.094-.094-.141-.094-.188-.188-.376-.282-.8-.611-1.222-.893l-.376-.282c-.47-.282-1.034-.658-1.5-.893-.094-.047-.141-.094-.235-.141a4.367,4.367,0,0,1-.47-.235A23.3,23.3,0,0,0,28.949.8C28.385.658,27.821.517,27.257.423L26.035.235c-.047,0-.188-.047-.282-.047l-1.6-.141c-.094,0-.188-.047-.329-.047H23.5A22.485,22.485,0,0,0,20.96.094c-.329.047-.611.047-.94.094-.752.094-1.41.235-2.115.376-.188.047-.376.094-.611.141a20.974,20.974,0,0,0-3.666,1.222,2.2,2.2,0,0,1-.47.235c-.329.141-.658.329-.94.47l-.893.517c-.282.141-.611.376-.893.517a2.207,2.207,0,0,1-.423.282l-.611.47a11.035,11.035,0,0,0-1.175.893L7.989,5.5C7.378,6.062,6.767,6.579,6.2,7.19a.649.649,0,0,1-.141.188A15.233,15.233,0,0,0,4.324,9.54c-.094.141-.235.282-.329.423-.094.188-.282.423-.376.611a9.117,9.117,0,0,0-.7,1.128c-.141.282-.329.611-.47.893a1.027,1.027,0,0,1-.141.235A28.526,28.526,0,0,0,1.175,15.6c-.188.517-.329,1.081-.47,1.6-.141.564-.282,1.175-.376,1.739,0,.188-.094.47-.094.658A23.531,23.531,0,0,0,0,22.887a13.881,13.881,0,0,0,.094,1.974c.047.188,0,.423.047.658l.094.611a2.75,2.75,0,0,0,.094.611,8.659,8.659,0,0,0,.235,1.175c.094.423.188.752.282,1.128A20.38,20.38,0,0,0,2.4,33.132l.376.658a12.947,12.947,0,0,0,.8,1.363l.423.611c.376.564.8,1.128,1.222,1.645l.611.752c.47.47.94.987,1.41,1.41.376.329.752.7,1.128.987l.564.47c.094.047.141.094.235.141l.8.611c.094.047.141.094.235.141.423.282,1.5.94,1.974,1.175l.47.235c.141.094.329.141.47.235a8.9,8.9,0,0,0,.987.423,18.283,18.283,0,0,0,2.068.752c.564.188,1.128.329,1.692.47l1.175.235a2.75,2.75,0,0,1,.611.094l.611.047a13.4,13.4,0,0,0,1.363.141H21.9C22.041,45.726,22.182,45.773,22.276,45.773Zm-7.566-29v.8a11.546,11.546,0,0,0,.282,1.692,7.047,7.047,0,0,0,1.269,2.679c0,.047.047.094.094.141.141.188.658.752.8.893a1.246,1.246,0,0,0,.282.235,8.48,8.48,0,0,0,1.88,1.316,6.843,6.843,0,0,0,2.491.7,5.36,5.36,0,0,0,1.222.094l.893-.047a8.8,8.8,0,0,0,1.6-.376c.329-.141.611-.235.893-.376a8.216,8.216,0,0,0,1.363-.846c.094-.047.188-.141.282-.188.282-.282.752-.7.987-.987a8.691,8.691,0,0,0,1.739-3.243,9.014,9.014,0,0,0,.282-2.491,5.877,5.877,0,0,0-.141-.893,7.754,7.754,0,0,0-.658-2.256,8.07,8.07,0,0,0-.893-1.41l-.047-.047v-.047l-.7-.8a6.034,6.034,0,0,0-1.222-.94c-.047-.047-.094-.094-.141-.094a.983.983,0,0,0-.282-.188c-.235-.141-.423-.235-.658-.376a9.293,9.293,0,0,0-2.3-.658,7.262,7.262,0,0,0-2.256,0,9.833,9.833,0,0,0-1.6.376c-.141.047-.235.094-.376.141l-.329.141c-.282.141-.987.517-1.269.7a9.4,9.4,0,0,0-1.034.893,6.449,6.449,0,0,0-.752.846,8.005,8.005,0,0,0-1.41,2.914A9.78,9.78,0,0,0,14.71,16.777Zm7.8,26.505h1.363l1.88-.188c.376-.047.8-.141,1.175-.188l1.081-.282a19.556,19.556,0,0,0,2.35-.752,5.253,5.253,0,0,0,1.175-.517,4.877,4.877,0,0,0,.47-.188c.282-.141.611-.329.893-.47a8.174,8.174,0,0,1,.846-.517,8.815,8.815,0,0,1,.846-.564l.094-.094,1.081-.8c.282-.282.517-.423.893-.8l.517-.517c.047-.094,0-.141-.047-.235a16.88,16.88,0,0,0-.8-1.6.244.244,0,0,0-.094-.188,17.988,17.988,0,0,0-1.269-1.833c-.423-.47-.893-1.081-1.316-1.457-.141-.094-.235-.235-.376-.329-.094-.047-.564-.517-.846-.7-.047-.047-.047,0-.094-.047a9.517,9.517,0,0,0-1.41-.987A1.905,1.905,0,0,0,30.5,29.8c-.094-.047-.141-.094-.235-.141l-.658-.329a15.76,15.76,0,0,0-5.075-1.457.7.7,0,0,1-.329-.047,21,21,0,0,0-3.854.141,16.709,16.709,0,0,0-5.075,1.786c-.376.235-.564.376-.846.517a12.062,12.062,0,0,0-1.739,1.316l-.188.188a.493.493,0,0,0-.188.141c-.047.094-.094.094-.188.188a6.805,6.805,0,0,0-.8.846l-.658.752c-.235.282-.752,1.081-.987,1.41a13.006,13.006,0,0,0-1.128,2.3c0,.047,1.081,1.034,1.222,1.175.188.094.8.611,1.175.846l.611.423a3.3,3.3,0,0,0,.423.282,8.174,8.174,0,0,0,.846.517l.658.376c.094.047.141.047.235.094l.94.47c.282.141.611.235.94.376l1.551.517c.47.141,1.175.329,1.645.423.188.047.376.047.611.094l1.175.188c.235,0,.423.047.611.047Z" fill="#7d7d7d" fill-rule="evenodd"/>
</svg>
